<svg width="36" height="36" viewBox="0 0 36 36" fill="none" xmlns="http://www.w3.org/2000/svg">
<path d="M24.6513 17.875L34.8146 7.71164C36.0618 6.46445 36.0618 4.44234 34.8146 3.19414L32.5559 0.935391C31.3087 -0.311797 29.2866 -0.311797 28.0384 0.935391L17.875 11.0988L7.71164 0.935391C6.46445 -0.311797 4.44234 -0.311797 3.19414 0.935391L0.935391 3.19414C-0.311797 4.44133 -0.311797 6.46344 0.935391 7.71164L11.0988 17.875L0.935391 28.0384C-0.311797 29.2855 -0.311797 31.3077 0.935391 32.5559L3.19414 34.8146C4.44133 36.0618 6.46445 36.0618 7.71164 34.8146L17.875 24.6513L28.0384 34.8146C29.2855 36.0618 31.3087 36.0618 32.5559 34.8146L34.8146 32.5559C36.0618 31.3087 36.0618 29.2866 34.8146 28.0384L24.6513 17.875Z" fill="#F85858"/>
</svg>
